<?xml version="1.0" encoding="utf-8"?>
<!-- Generator: Adobe Illustrator 22.0.1, SVG Export Plug-In . SVG Version: 6.00 Build 0)  -->
<svg version="1.1" id="Ebene_1" xmlns="http://www.w3.org/2000/svg" xmlns:xlink="http://www.w3.org/1999/xlink" x="0px" y="0px"
	 viewBox="0 0 255.1 30" style="enable-background:new 0 0 255.1 30;" xml:space="preserve">
<style type="text/css">
	.st0{fill:#FFFFFF;}
</style>
<g>
	<g>
		<defs>
			<rect id="SVGID_1_" x="0" y="0" width="255.1" height="30"/>
		</defs>
		<clipPath id="SVGID_2_">
			<use xlink:href="#SVGID_1_"  style="overflow:visible;"/>
		</clipPath>
	</g>
	<polygon class="st0" points="157.2,24.7 146.1,24.7 146.1,5.4 157.2,5.4 157.2,8.7 150.2,8.7 150.2,12.9 156.8,12.9 156.8,16.3 
		150.2,16.3 150.2,21.3 157.2,21.3 	"/>
	<g>
		<defs>
			<rect id="SVGID_3_" x="0" y="0" width="255.1" height="30"/>
		</defs>
		<clipPath id="SVGID_4_">
			<use xlink:href="#SVGID_3_"  style="overflow:visible;"/>
		</clipPath>
	</g>
	<polygon class="st0" points="205.8,24.7 191.4,24.7 191.4,22 200.7,8.7 191.7,8.7 191.7,5.4 205.5,5.4 205.5,8 196.3,21.3 
		205.8,21.3 	"/>
	<polygon class="st0" points="220.4,24.7 209.3,24.7 209.3,5.4 220.4,5.4 220.4,8.7 213.3,8.7 213.3,12.9 219.9,12.9 219.9,16.3 
		213.3,16.3 213.3,21.3 220.4,21.3 	"/>
	<g>
		<defs>
			<rect id="SVGID_5_" x="0" y="0" width="255.1" height="30"/>
		</defs>
		<clipPath id="SVGID_6_">
			<use xlink:href="#SVGID_5_"  style="overflow:visible;"/>
		</clipPath>
	</g>
	<polygon class="st0" points="244,5.4 244,24.7 255.1,24.7 255.1,21.3 248.1,21.3 248.1,16.3 254.6,16.3 254.6,12.9 248.1,12.9 
		248.1,8.7 255.1,8.7 255.1,5.4 	"/>
	<rect x="98.5" y="5.4" class="st0" width="4.1" height="4.1"/>
	<rect x="92.6" y="5.4" class="st0" width="4.1" height="4.1"/>
	<polygon class="st0" points="38.4,0 32,30 36.1,30 42.5,0 	"/>
	<polygon class="st0" points="44.5,0 38.2,30 42.2,30 48.6,0 	"/>
	<polygon class="st0" points="0,0 0,30 30,30 36.4,0 	"/>
	<path class="st0" d="M58.8,13.8h7.7v10c-1.2,0.4-2.4,0.7-3.5,0.9c-1.1,0.2-2.2,0.2-3.4,0.2c-2.9,0-5.1-0.9-6.7-2.6
		c-1.5-1.7-2.3-4.2-2.3-7.4c0-3.1,0.9-5.5,2.7-7.3c1.8-1.7,4.3-2.6,7.4-2.6c2,0,3.9,0.4,5.7,1.2l-1.4,3.3c-1.4-0.7-2.9-1.1-4.4-1.1
		c-1.8,0-3.2,0.6-4.3,1.8c-1.1,1.2-1.6,2.8-1.6,4.8c0,2.1,0.4,3.7,1.3,4.8c0.9,1.1,2.1,1.7,3.7,1.7c0.9,0,1.7-0.1,2.6-0.3v-4h-3.7
		V13.8z"/>
	<path class="st0" d="M74.3,13.9h1.3c1.3,0,2.2-0.2,2.9-0.6c0.6-0.4,0.9-1.1,0.9-2c0-0.9-0.3-1.6-0.9-2c-0.6-0.4-1.6-0.6-2.9-0.6
		h-1.2V13.9z M74.3,17.3v7.4h-4.1V5.4h5.6c2.6,0,4.6,0.5,5.8,1.4c1.3,1,1.9,2.4,1.9,4.3c0,1.1-0.3,2.1-0.9,3
		c-0.6,0.9-1.5,1.6-2.7,2.1c2.9,4.3,4.8,7.1,5.7,8.4h-4.5l-4.6-7.4H74.3z"/>
	<path class="st0" d="M123.4,24.7h-5.2l-8.4-14.6h-0.1c0.2,2.6,0.3,4.4,0.3,5.5v9.1h-3.7V5.4h5.2l8.4,14.5h0.1
		c-0.1-2.5-0.2-4.3-0.2-5.3V5.4h3.7V24.7z"/>
	<path class="st0" d="M139,14.9c0-4.1-1.8-6.2-5.5-6.2h-2.2v12.6h1.8C137,21.3,139,19.2,139,14.9 M143.2,14.8c0,3.2-0.9,5.6-2.7,7.3
		c-1.8,1.7-4.4,2.5-7.8,2.5h-5.5V5.4h6.1c3.1,0,5.6,0.8,7.3,2.5C142.3,9.5,143.2,11.8,143.2,14.8"/>
	<path class="st0" d="M164.6,13.9h1.3c1.3,0,2.2-0.2,2.9-0.6c0.6-0.4,0.9-1.1,0.9-2c0-0.9-0.3-1.6-0.9-2c-0.6-0.4-1.6-0.6-2.9-0.6
		h-1.2V13.9z M164.6,17.3v7.4h-4.1V5.4h5.6c2.6,0,4.6,0.5,5.8,1.4c1.3,1,1.9,2.4,1.9,4.3c0,1.1-0.3,2.1-0.9,3
		c-0.6,0.9-1.5,1.6-2.7,2.1c2.9,4.3,4.8,7.1,5.7,8.4h-4.5l-4.6-7.4H164.6z"/>
	<path class="st0" d="M189.7,19.3c0,1.7-0.6,3.1-1.9,4.1c-1.3,1-3,1.5-5.2,1.5c-2.1,0-3.9-0.4-5.5-1.2V20c1.3,0.6,2.4,1,3.3,1.2
		c0.9,0.2,1.7,0.4,2.5,0.4c0.9,0,1.6-0.2,2.1-0.5c0.5-0.3,0.7-0.9,0.7-1.5c0-0.4-0.1-0.7-0.3-1c-0.2-0.3-0.5-0.6-0.9-0.9
		c-0.4-0.3-1.2-0.7-2.5-1.3c-1.2-0.6-2.1-1.1-2.7-1.6c-0.6-0.5-1.1-1.1-1.4-1.8c-0.4-0.7-0.5-1.5-0.5-2.4c0-1.7,0.6-3,1.7-4
		c1.2-1,2.8-1.5,4.8-1.5c1,0,2,0.1,2.9,0.4c0.9,0.2,1.9,0.6,2.9,1l-1.3,3.2c-1-0.4-1.9-0.7-2.6-0.9c-0.7-0.2-1.3-0.3-2-0.3
		c-0.8,0-1.4,0.2-1.8,0.5c-0.4,0.4-0.6,0.8-0.6,1.4c0,0.4,0.1,0.7,0.3,0.9c0.2,0.3,0.4,0.5,0.8,0.8c0.4,0.3,1.2,0.7,2.6,1.4
		c1.8,0.9,3,1.7,3.7,2.6C189.4,17,189.7,18,189.7,19.3"/>
	<path class="st0" d="M98.5,11.2v6c0,1.5-0.3,2.6-0.9,3.3c-0.6,0.7-1.6,1-2.9,1c-1.4,0-2.4-0.3-3-1s-0.9-1.8-0.9-3.3V5.4h-4.1v12.4
		c0,2.2,0.7,3.9,2.1,5.2c1.4,1.3,3.3,1.9,5.8,1.9c1.6,0,3.1-0.3,4.3-0.9c1.2-0.6,2.1-1.4,2.8-2.5c0.6-1.1,1-2.3,1-3.7v-6.7H98.5z"/>
	<path class="st0" d="M240.7,24.7h-5.2l-8.4-14.6H227c0.2,2.6,0.3,4.4,0.3,5.5v9.1h-3.7V5.4h5.2l8.4,14.5h0.1
		c-0.1-2.5-0.2-4.3-0.2-5.3V5.4h3.7V24.7z"/>
</g>
</svg>
