<svg xmlns="http://www.w3.org/2000/svg" width="19" height="20" viewBox="0 0 19 20">
    <path fill="#ff6427" fill-rule="evenodd" d="M17.063.938c.355 0 .663.13.922.39.26.259.39.567.39.922V18c0 .355-.13.663-.39.923s-.567.39-.922.39H1.313c-.356 0-.664-.13-.923-.39C.13 18.663 0 18.355 0 18V2.25c0-.355.13-.663.39-.923s.567-.39.922-.39h15.75zM2.83 16.688h2.748V7.91H2.83v8.778zM4.184 6.72a1.54 1.54 0 0 0 1.128-.472c.314-.314.471-.684.471-1.107 0-.424-.157-.793-.471-1.108a1.54 1.54 0 0 0-1.128-.471c-.438 0-.807.157-1.108.471a1.55 1.55 0 0 0-.451 1.108c0 .423.15.793.451 1.107.3.315.67.472 1.108.472zm11.566 9.967v-4.8c0-1.366-.191-2.365-.574-2.993-.52-.793-1.408-1.19-2.666-1.19-.63 0-1.19.15-1.682.451-.41.246-.71.56-.902.944h-.041V7.91H7.26v8.778h2.707V12.34c0-.684.095-1.203.287-1.559.273-.465.724-.697 1.353-.697.63 0 1.04.26 1.23.78.138.327.206.847.206 1.558v4.266h2.707z"/>
</svg>
