<svg id="Ebene_1" data-name="Ebene 1" xmlns="http://www.w3.org/2000/svg" viewBox="0 0 2000 543.5"><defs><style>.cls-1{fill:#1d1d1b;}</style></defs><title>Ares logo</title><path class="cls-1" d="M439.7,84.8C404,25.7,327,0,264.5,0,123.9,0,0,104.9,0,271.2S123.9,543.5,264.5,543.5c64.7,0,140.6-29,175.2-85.9v74.8H553.6V11.2H439.7ZM277.9,431.9c-87,0-159.6-65.8-159.6-161.8s72.6-158.5,159.6-158.5c78.1,0,160.7,55.8,160.7,158.5S362.7,431.9,277.9,431.9ZM1863.8,234.4l-80.3-20.1c-27.9-7.8-56.9-20.1-63.6-40.2-5.6-15.6-4.5-32.4,4.4-46.9,11.2-17.8,44.7-29,73.7-29,35.7,0,71.4,16.8,75.9,55.8h109.4C1976.6,42.4,1886.2,0,1793.5,0c-96,0-179.7,60.3-186.4,137.3-6.7,83.7,33.5,139.5,144,169.6l70.3,16.8c38,8.9,72.6,27.9,72.6,61.3,0,39.1-40.2,62.5-92.7,62.5-60.2,0-97.1-30.1-102.6-74.7H1592.6c2.3,109.3,102.7,170.7,199.8,170.7,119.4,0,207.6-56.9,207.6-157.3C2000,333.7,1976.6,262.3,1863.8,234.4ZM671.1,532.5H784.7V11.2H671.1ZM1256.6,0C1108.2,0,988.7,104.9,988.7,270.1s119.5,273.4,267.9,273.4c98.2,0,195.3-42.4,241.1-133.9-30.2-13.4-64.8-27.9-93.8-41.3-26.8,48-83.7,74.8-141.7,74.8-83.7,0-148.5-50.2-159.6-130.6h414c1.2-11.2,1.2-30.1,1.2-42.4C1517.8,104.9,1405,0,1256.6,0Zm-154,228.8c11.1-80.4,73.6-128.4,154-128.4,78.1,0,137.3,46.9,148.4,128.4Zm-289.4-75H952.8V11.7C875.5,13.1,813.2,76.1,813.2,153.8Z"/></svg>