<svg xmlns="http://www.w3.org/2000/svg" width="130" height="31" viewBox="0 0 130 31">
    <g fill="#FEFEFE" fill-rule="evenodd">
        <path d="M15.5 0L0 15.5l6.925 6.926 1.98-1.98L15.5 13.85l6.596 6.596-2.967 2.968-3.629-3.626-5.607 5.606L15.5 31h.001l1.978-1.978-3.628-3.628 1.65-1.65 3.628 3.629 6.924-6.927-1.978-1.979L15.5 9.894l-8.575 8.575L3.957 15.5 15.5 3.958l13.522 13.521L31 15.5zM52.91 17.465l-1.254-4.274a79.51 79.51 0 0 1-.793-3.226h-.042c-.23 1.004-.481 2.2-.753 3.205l-1.275 4.295h4.117zm4.39 6.709h-2.55l-1.442-4.808h-4.891l-1.38 4.808h-2.486l4.89-16.346h2.968l4.89 16.346zM76.089 15.392c2.006 0 3.26-1.175 3.26-2.928 0-2.115-1.464-2.841-3.198-2.841-.814 0-1.4.064-1.693.15v5.619h1.63zm2.821 1.004c1.192.449 1.86 1.603 2.237 3.334.48 2.137.877 3.824 1.19 4.444H79.83c-.23-.47-.606-1.902-1.003-3.91-.44-2.18-1.212-3.013-2.905-3.013h-1.464v6.923h-2.403V8.042a22.144 22.144 0 0 1 3.887-.342c2.09 0 3.553.385 4.557 1.303.835.748 1.275 1.88 1.275 3.205 0 2.094-1.254 3.526-2.864 4.146v.042zM105.745 24.174h-8.716V7.828h8.36v2.073h-5.935v4.721h5.6v2.052h-5.6V22.1h6.29zM128.233 10.37a5.8 5.8 0 0 0-2.842-.726c-1.903 0-2.697 1.132-2.697 2.18 0 1.388.899 2.072 2.926 2.97 2.57 1.154 3.804 2.585 3.804 4.829 0 2.734-1.986 4.785-5.58 4.785-1.505 0-3.093-.448-3.867-.982l.543-2.073c.858.535 2.154.962 3.47.962 1.902 0 2.967-1.004 2.967-2.479 0-1.388-.814-2.243-2.716-3.055-2.383-.983-3.992-2.457-3.992-4.68 0-2.585 2.027-4.53 5.204-4.53 1.525 0 2.675.385 3.365.748l-.585 2.052z"/>
    </g>
</svg>
